<svg width="510" height="112" viewBox="0 0 510 112" fill="none" xmlns="http://www.w3.org/2000/svg">
<path d="M0.639258 40V5H17.7393C22.1393 5 25.4393 5.83333 27.6393 7.5C29.8726 9.16667 30.9893 11.3667 30.9893 14.1C30.9893 15.9333 30.5393 17.5333 29.6393 18.9C28.7393 20.2333 27.5059 21.2667 25.9393 22C24.3726 22.7333 22.5726 23.1 20.5393 23.1L21.4893 21.05C23.6893 21.05 25.6393 21.4167 27.3393 22.15C29.0393 22.85 30.3559 23.9 31.2893 25.3C32.2559 26.7 32.7393 28.4167 32.7393 30.45C32.7393 33.45 31.5559 35.8 29.1893 37.5C26.8226 39.1667 23.3393 40 18.7393 40H0.639258ZM8.68926 33.9H18.1393C20.2393 33.9 21.8226 33.5667 22.8893 32.9C23.9893 32.2 24.5393 31.1 24.5393 29.6C24.5393 28.1333 23.9893 27.05 22.8893 26.35C21.8226 25.6167 20.2393 25.25 18.1393 25.25H8.08926V19.35H16.7393C18.7059 19.35 20.2059 19.0167 21.2393 18.35C22.3059 17.65 22.8393 16.6 22.8393 15.2C22.8393 13.8333 22.3059 12.8167 21.2393 12.15C20.2059 11.45 18.7059 11.1 16.7393 11.1H8.68926V33.9ZM40.8217 40V13.1H48.6217V40H40.8217ZM44.7217 9.35C43.2883 9.35 42.1217 8.93333 41.2217 8.1C40.3217 7.26666 39.8717 6.23333 39.8717 5C39.8717 3.76666 40.3217 2.73333 41.2217 1.9C42.1217 1.06666 43.2883 0.649997 44.7217 0.649997C46.155 0.649997 47.3217 1.05 48.2217 1.85C49.1217 2.61667 49.5717 3.61667 49.5717 4.85C49.5717 6.15 49.1217 7.23333 48.2217 8.1C47.355 8.93333 46.1883 9.35 44.7217 9.35ZM69.7107 40.4C67.4774 40.4 65.4774 39.9667 63.7107 39.1C61.9774 38.2333 60.6274 36.9167 59.6607 35.15C58.6941 33.35 58.2107 31.0667 58.2107 28.3V13.1H66.0107V27.15C66.0107 29.3833 66.4774 31.0333 67.4107 32.1C68.3774 33.1333 69.7274 33.65 71.4607 33.65C72.6607 33.65 73.7274 33.4 74.6607 32.9C75.5941 32.3667 76.3274 31.5667 76.8607 30.5C77.3941 29.4 77.6607 28.0333 77.6607 26.4V13.1H85.4607V40H78.0607V32.6L79.4107 34.75C78.5107 36.6167 77.1774 38.0333 75.4107 39C73.6774 39.9333 71.7774 40.4 69.7107 40.4ZM95.1869 40V13.1H102.637V20.7L101.587 18.5C102.387 16.6 103.67 15.1667 105.437 14.2C107.204 13.2 109.354 12.7 111.887 12.7V19.9C111.554 19.8667 111.254 19.85 110.987 19.85C110.72 19.8167 110.437 19.8 110.137 19.8C108.004 19.8 106.27 20.4167 104.937 21.65C103.637 22.85 102.987 24.7333 102.987 27.3V40H95.1869ZM131.629 40.4C128.763 40.4 126.213 39.8 123.979 38.6C121.779 37.4 120.029 35.7667 118.729 33.7C117.463 31.6 116.829 29.2167 116.829 26.55C116.829 23.85 117.463 21.4667 118.729 19.4C120.029 17.3 121.779 15.6667 123.979 14.5C126.213 13.3 128.763 12.7 131.629 12.7C134.463 12.7 136.996 13.3 139.229 14.5C141.463 15.6667 143.213 17.2833 144.479 19.35C145.746 21.4167 146.379 23.8167 146.379 26.55C146.379 29.2167 145.746 31.6 144.479 33.7C143.213 35.7667 141.463 37.4 139.229 38.6C136.996 39.8 134.463 40.4 131.629 40.4ZM131.629 34C132.929 34 134.096 33.7 135.129 33.1C136.163 32.5 136.979 31.65 137.579 30.55C138.179 29.4167 138.479 28.0833 138.479 26.55C138.479 24.9833 138.179 23.65 137.579 22.55C136.979 21.45 136.163 20.6 135.129 20C134.096 19.4 132.929 19.1 131.629 19.1C130.329 19.1 129.163 19.4 128.129 20C127.096 20.6 126.263 21.45 125.629 22.55C125.029 23.65 124.729 24.9833 124.729 26.55C124.729 28.0833 125.029 29.4167 125.629 30.55C126.263 31.65 127.096 32.5 128.129 33.1C129.163 33.7 130.329 34 131.629 34ZM171.303 40V5H179.403V40H171.303ZM206.01 12.7C208.143 12.7 210.043 13.1333 211.71 14C213.41 14.8333 214.743 16.1333 215.71 17.9C216.676 19.6333 217.16 21.8667 217.16 24.6V40H209.36V25.8C209.36 23.6333 208.876 22.0333 207.91 21C206.976 19.9667 205.643 19.45 203.91 19.45C202.676 19.45 201.56 19.7167 200.56 20.25C199.593 20.75 198.826 21.5333 198.26 22.6C197.726 23.6667 197.46 25.0333 197.46 26.7V40H189.66V13.1H197.11V20.55L195.71 18.3C196.676 16.5 198.06 15.1167 199.86 14.15C201.66 13.1833 203.71 12.7 206.01 12.7ZM224.88 40V35.3L240.78 16.5L242.13 19.1H225.23V13.1H248.43V17.8L232.53 36.6L231.13 34H248.88V40H224.88ZM236.88 9.4C235.647 9.4 234.63 9 233.83 8.2C233.063 7.4 232.68 6.38333 232.68 5.15C232.68 3.95 233.063 2.95 233.83 2.15C234.63 1.35 235.647 0.949999 236.88 0.949999C238.08 0.949999 239.08 1.35 239.88 2.15C240.68 2.95 241.08 3.95 241.08 5.15C241.08 6.38333 240.68 7.4 239.88 8.2C239.08 9 238.08 9.4 236.88 9.4ZM259.29 50.1C257.89 50.1 256.507 49.8833 255.14 49.45C253.773 49.0167 252.657 48.4167 251.79 47.65L254.64 42.1C255.24 42.6333 255.923 43.05 256.69 43.35C257.49 43.65 258.273 43.8 259.04 43.8C260.14 43.8 261.007 43.5333 261.64 43C262.307 42.5 262.907 41.65 263.44 40.45L264.84 37.15L265.44 36.3L275.09 13.1H282.59L270.44 41.65C269.573 43.8167 268.573 45.5167 267.44 46.75C266.34 47.9833 265.107 48.85 263.74 49.35C262.407 49.85 260.923 50.1 259.29 50.1ZM263.89 41.05L251.89 13.1H259.94L269.24 35.6L263.89 41.05ZM304.623 12.7C306.756 12.7 308.656 13.1333 310.323 14C312.023 14.8333 313.356 16.1333 314.323 17.9C315.29 19.6333 315.773 21.8667 315.773 24.6V40H307.973V25.8C307.973 23.6333 307.49 22.0333 306.523 21C305.59 19.9667 304.256 19.45 302.523 19.45C301.29 19.45 300.173 19.7167 299.173 20.25C298.206 20.75 297.44 21.5333 296.873 22.6C296.34 23.6667 296.073 25.0333 296.073 26.7V40H288.273V13.1H295.723V20.55L294.323 18.3C295.29 16.5 296.673 15.1167 298.473 14.15C300.273 13.1833 302.323 12.7 304.623 12.7ZM325.343 40V13.1H333.143V40H325.343ZM329.243 9.35C327.81 9.35 326.643 8.93333 325.743 8.1C324.843 7.26666 324.393 6.23333 324.393 5C324.393 3.76666 324.843 2.73333 325.743 1.9C326.643 1.06666 327.81 0.649997 329.243 0.649997C330.676 0.649997 331.843 1.05 332.743 1.85C333.643 2.61667 334.093 3.61667 334.093 4.85C334.093 6.15 333.643 7.23333 332.743 8.1C331.876 8.93333 330.71 9.35 329.243 9.35ZM356.232 40.4C353.166 40.4 350.466 39.8 348.132 38.6C345.832 37.4 344.049 35.7667 342.782 33.7C341.516 31.6 340.882 29.2167 340.882 26.55C340.882 23.85 341.499 21.4667 342.732 19.4C343.999 17.3 345.716 15.6667 347.882 14.5C350.049 13.3 352.499 12.7 355.232 12.7C357.866 12.7 360.232 13.2667 362.332 14.4C364.466 15.5 366.149 17.1 367.382 19.2C368.616 21.2667 369.232 23.75 369.232 26.65C369.232 26.95 369.216 27.3 369.182 27.7C369.149 28.0667 369.116 28.4167 369.082 28.75H347.232V24.2H364.982L361.982 25.55C361.982 24.15 361.699 22.9333 361.132 21.9C360.566 20.8667 359.782 20.0667 358.782 19.5C357.782 18.9 356.616 18.6 355.282 18.6C353.949 18.6 352.766 18.9 351.732 19.5C350.732 20.0667 349.949 20.8833 349.382 21.95C348.816 22.9833 348.532 24.2167 348.532 25.65V26.85C348.532 28.3167 348.849 29.6167 349.482 30.75C350.149 31.85 351.066 32.7 352.232 33.3C353.432 33.8667 354.832 34.15 356.432 34.15C357.866 34.15 359.116 33.9333 360.182 33.5C361.282 33.0667 362.282 32.4167 363.182 31.55L367.332 36.05C366.099 37.45 364.549 38.5333 362.682 39.3C360.816 40.0333 358.666 40.4 356.232 40.4ZM376.925 40V13.1H384.375V20.7L383.325 18.5C384.125 16.6 385.409 15.1667 387.175 14.2C388.942 13.2 391.092 12.7 393.625 12.7V19.9C393.292 19.8667 392.992 19.85 392.725 19.85C392.459 19.8167 392.175 19.8 391.875 19.8C389.742 19.8 388.009 20.4167 386.675 21.65C385.375 22.85 384.725 24.7333 384.725 27.3V40H376.925ZM410.008 40.4C407.708 40.4 405.492 40.1333 403.358 39.6C401.258 39.0333 399.592 38.3333 398.358 37.5L400.958 31.9C402.192 32.6667 403.642 33.3 405.308 33.8C407.008 34.2667 408.675 34.5 410.308 34.5C412.108 34.5 413.375 34.2833 414.108 33.85C414.875 33.4167 415.258 32.8167 415.258 32.05C415.258 31.4167 414.958 30.95 414.358 30.65C413.792 30.3167 413.025 30.0667 412.058 29.9C411.092 29.7333 410.025 29.5667 408.858 29.4C407.725 29.2333 406.575 29.0167 405.408 28.75C404.242 28.45 403.175 28.0167 402.208 27.45C401.242 26.8833 400.458 26.1167 399.858 25.15C399.292 24.1833 399.008 22.9333 399.008 21.4C399.008 19.7 399.492 18.2 400.458 16.9C401.458 15.6 402.892 14.5833 404.758 13.85C406.625 13.0833 408.858 12.7 411.458 12.7C413.292 12.7 415.158 12.9 417.058 13.3C418.958 13.7 420.542 14.2833 421.808 15.05L419.208 20.6C417.908 19.8333 416.592 19.3167 415.258 19.05C413.958 18.75 412.692 18.6 411.458 18.6C409.725 18.6 408.458 18.8333 407.658 19.3C406.858 19.7667 406.458 20.3667 406.458 21.1C406.458 21.7667 406.742 22.2667 407.308 22.6C407.908 22.9333 408.692 23.2 409.658 23.4C410.625 23.6 411.675 23.7833 412.808 23.95C413.975 24.0833 415.142 24.3 416.308 24.6C417.475 24.9 418.525 25.3333 419.458 25.9C420.425 26.4333 421.208 27.1833 421.808 28.15C422.408 29.0833 422.708 30.3167 422.708 31.85C422.708 33.5167 422.208 35 421.208 36.3C420.208 37.5667 418.758 38.5667 416.858 39.3C414.992 40.0333 412.708 40.4 410.008 40.4ZM436.471 34.5L436.671 25L449.221 13.1H458.521L446.471 25.35L442.421 28.65L436.471 34.5ZM430.021 40V2.9H437.821V40H430.021ZM450.071 40L440.971 28.7L445.871 22.65L459.521 40H450.071ZM465.529 40V13.1H473.329V40H465.529ZM469.429 9.35C467.995 9.35 466.829 8.93333 465.929 8.1C465.029 7.26666 464.579 6.23333 464.579 5C464.579 3.76666 465.029 2.73333 465.929 1.9C466.829 1.06666 467.995 0.649997 469.429 0.649997C470.862 0.649997 472.029 1.05 472.929 1.85C473.829 2.61667 474.279 3.61667 474.279 4.85C474.279 6.15 473.829 7.23333 472.929 8.1C472.062 8.93333 470.895 9.35 469.429 9.35ZM496.418 40.4C493.351 40.4 490.651 39.8 488.318 38.6C486.018 37.4 484.234 35.7667 482.968 33.7C481.701 31.6 481.068 29.2167 481.068 26.55C481.068 23.85 481.684 21.4667 482.918 19.4C484.184 17.3 485.901 15.6667 488.068 14.5C490.234 13.3 492.684 12.7 495.418 12.7C498.051 12.7 500.418 13.2667 502.518 14.4C504.651 15.5 506.334 17.1 507.568 19.2C508.801 21.2667 509.418 23.75 509.418 26.65C509.418 26.95 509.401 27.3 509.368 27.7C509.334 28.0667 509.301 28.4167 509.268 28.75H487.418V24.2H505.168L502.168 25.55C502.168 24.15 501.884 22.9333 501.318 21.9C500.751 20.8667 499.968 20.0667 498.968 19.5C497.968 18.9 496.801 18.6 495.468 18.6C494.134 18.6 492.951 18.9 491.918 19.5C490.918 20.0667 490.134 20.8833 489.568 21.95C489.001 22.9833 488.718 24.2167 488.718 25.65V26.85C488.718 28.3167 489.034 29.6167 489.668 30.75C490.334 31.85 491.251 32.7 492.418 33.3C493.618 33.8667 495.018 34.15 496.618 34.15C498.051 34.15 499.301 33.9333 500.368 33.5C501.468 33.0667 502.468 32.4167 503.368 31.55L507.518 36.05C506.284 37.45 504.734 38.5333 502.868 39.3C501.001 40.0333 498.851 40.4 496.418 40.4ZM42.3871 101.6C40.0204 101.6 37.8371 101.167 35.8371 100.3C33.8704 99.4 32.2538 98.1333 30.9871 96.5L35.4871 91.1C36.4538 92.3667 37.4704 93.3333 38.5371 94C39.6038 94.6333 40.7538 94.95 41.9871 94.95C45.2871 94.95 46.9371 93.0167 46.9371 89.15V72.5H34.6371V66H54.9871V88.7C54.9871 93.0333 53.9204 96.2667 51.7871 98.4C49.6538 100.533 46.5204 101.6 42.3871 101.6ZM78.2879 101.4C75.2212 101.4 72.5212 100.8 70.1879 99.6C67.8879 98.4 66.1046 96.7667 64.8379 94.7C63.5712 92.6 62.9379 90.2167 62.9379 87.55C62.9379 84.85 63.5546 82.4667 64.7879 80.4C66.0546 78.3 67.7712 76.6667 69.9379 75.5C72.1046 74.3 74.5546 73.7 77.2879 73.7C79.9212 73.7 82.2879 74.2667 84.3879 75.4C86.5212 76.5 88.2046 78.1 89.4379 80.2C90.6712 82.2667 91.2879 84.75 91.2879 87.65C91.2879 87.95 91.2712 88.3 91.2379 88.7C91.2046 89.0667 91.1712 89.4167 91.1379 89.75H69.2879V85.2H87.0379L84.0379 86.55C84.0379 85.15 83.7546 83.9333 83.1879 82.9C82.6212 81.8667 81.8379 81.0667 80.8379 80.5C79.8379 79.9 78.6712 79.6 77.3379 79.6C76.0046 79.6 74.8212 79.9 73.7879 80.5C72.7879 81.0667 72.0046 81.8833 71.4379 82.95C70.8712 83.9833 70.5879 85.2167 70.5879 86.65V87.85C70.5879 89.3167 70.9046 90.6167 71.5379 91.75C72.2046 92.85 73.1212 93.7 74.2879 94.3C75.4879 94.8667 76.8879 95.15 78.4879 95.15C79.9212 95.15 81.1712 94.9333 82.2379 94.5C83.3379 94.0667 84.3379 93.4167 85.2379 92.55L89.3879 97.05C88.1546 98.45 86.6046 99.5333 84.7379 100.3C82.8712 101.033 80.7212 101.4 78.2879 101.4ZM98.9809 101V74.1H106.431V81.7L105.381 79.5C106.181 77.6 107.464 76.1667 109.231 75.2C110.998 74.2 113.148 73.7 115.681 73.7V80.9C115.348 80.8667 115.048 80.85 114.781 80.85C114.514 80.8167 114.231 80.8 113.931 80.8C111.798 80.8 110.064 81.4167 108.731 82.65C107.431 83.85 106.781 85.7333 106.781 88.3V101H98.9809ZM121.164 101V96.3L137.064 77.5L138.414 80.1H121.514V74.1H144.714V78.8L128.814 97.6L127.414 95H145.164V101H121.164ZM155.574 111.1C154.174 111.1 152.791 110.883 151.424 110.45C150.058 110.017 148.941 109.417 148.074 108.65L150.924 103.1C151.524 103.633 152.208 104.05 152.974 104.35C153.774 104.65 154.558 104.8 155.324 104.8C156.424 104.8 157.291 104.533 157.924 104C158.591 103.5 159.191 102.65 159.724 101.45L161.124 98.15L161.724 97.3L171.374 74.1H178.874L166.724 102.65C165.858 104.817 164.858 106.517 163.724 107.75C162.624 108.983 161.391 109.85 160.024 110.35C158.691 110.85 157.208 111.1 155.574 111.1ZM160.174 102.05L148.174 74.1H156.224L165.524 96.6L160.174 102.05ZM213.267 101.6C210.467 101.6 207.784 101.233 205.217 100.5C202.651 99.7333 200.584 98.75 199.017 97.55L201.767 91.45C203.267 92.5167 205.034 93.4 207.067 94.1C209.134 94.7667 211.217 95.1 213.317 95.1C214.917 95.1 216.201 94.95 217.167 94.65C218.167 94.3167 218.901 93.8667 219.367 93.3C219.834 92.7333 220.067 92.0833 220.067 91.35C220.067 90.4167 219.701 89.6833 218.967 89.15C218.234 88.5833 217.267 88.1333 216.067 87.8C214.867 87.4333 213.534 87.1 212.067 86.8C210.634 86.4667 209.184 86.0667 207.717 85.6C206.284 85.1333 204.967 84.5333 203.767 83.8C202.567 83.0667 201.584 82.1 200.817 80.9C200.084 79.7 199.717 78.1667 199.717 76.3C199.717 74.3 200.251 72.4833 201.317 70.85C202.417 69.1833 204.051 67.8667 206.217 66.9C208.417 65.9 211.167 65.4 214.467 65.4C216.667 65.4 218.834 65.6667 220.967 66.2C223.101 66.7 224.984 67.4667 226.617 68.5L224.117 74.65C222.484 73.7167 220.851 73.0333 219.217 72.6C217.584 72.1333 215.984 71.9 214.417 71.9C212.851 71.9 211.567 72.0833 210.567 72.45C209.567 72.8167 208.851 73.3 208.417 73.9C207.984 74.4667 207.767 75.1333 207.767 75.9C207.767 76.8 208.134 77.5333 208.867 78.1C209.601 78.6333 210.567 79.0667 211.767 79.4C212.967 79.7333 214.284 80.0667 215.717 80.4C217.184 80.7333 218.634 81.1167 220.067 81.55C221.534 81.9833 222.867 82.5667 224.067 83.3C225.267 84.0333 226.234 85 226.967 86.2C227.734 87.4 228.117 88.9167 228.117 90.75C228.117 92.7167 227.567 94.5167 226.467 96.15C225.367 97.7833 223.717 99.1 221.517 100.1C219.351 101.1 216.601 101.6 213.267 101.6ZM242.052 95.5L242.252 86L254.802 74.1H264.102L252.052 86.35L248.002 89.65L242.052 95.5ZM235.602 101V63.9H243.402V101H235.602ZM255.652 101L246.552 89.7L251.452 83.65L265.102 101H255.652ZM270.963 101V74.1H278.413V81.7L277.363 79.5C278.163 77.6 279.447 76.1667 281.213 75.2C282.98 74.2 285.13 73.7 287.663 73.7V80.9C287.33 80.8667 287.03 80.85 286.763 80.85C286.497 80.8167 286.213 80.8 285.913 80.8C283.78 80.8 282.047 81.4167 280.713 82.65C279.413 83.85 278.763 85.7333 278.763 88.3V101H270.963ZM309.543 101V95.75L309.043 94.6V85.2C309.043 83.5333 308.527 82.2333 307.493 81.3C306.493 80.3667 304.943 79.9 302.843 79.9C301.41 79.9 299.993 80.1333 298.593 80.6C297.227 81.0333 296.06 81.6333 295.093 82.4L292.293 76.95C293.76 75.9167 295.527 75.1167 297.593 74.55C299.66 73.9833 301.76 73.7 303.893 73.7C307.993 73.7 311.177 74.6667 313.443 76.6C315.71 78.5333 316.843 81.55 316.843 85.65V101H309.543ZM301.343 101.4C299.243 101.4 297.443 101.05 295.943 100.35C294.443 99.6167 293.293 98.6333 292.493 97.4C291.693 96.1667 291.293 94.7833 291.293 93.25C291.293 91.65 291.677 90.25 292.443 89.05C293.243 87.85 294.493 86.9167 296.193 86.25C297.893 85.55 300.11 85.2 302.843 85.2H309.993V89.75H303.693C301.86 89.75 300.593 90.05 299.893 90.65C299.227 91.25 298.893 92 298.893 92.9C298.893 93.9 299.277 94.7 300.043 95.3C300.843 95.8667 301.927 96.15 303.293 96.15C304.593 96.15 305.76 95.85 306.793 95.25C307.827 94.6167 308.577 93.7 309.043 92.5L310.243 96.1C309.677 97.8333 308.643 99.15 307.143 100.05C305.643 100.95 303.71 101.4 301.343 101.4ZM342.303 101.4C339.936 101.4 337.903 100.9 336.203 99.9C334.503 98.9 333.203 97.3833 332.303 95.35C331.403 93.2833 330.953 90.6833 330.953 87.55C330.953 84.3833 331.419 81.7833 332.353 79.75C333.319 77.7167 334.653 76.2 336.353 75.2C338.053 74.2 340.036 73.7 342.303 73.7C344.836 73.7 347.103 74.2667 349.103 75.4C351.136 76.5333 352.736 78.1333 353.903 80.2C355.103 82.2667 355.703 84.7167 355.703 87.55C355.703 90.35 355.103 92.7833 353.903 94.85C352.736 96.9167 351.136 98.5333 349.103 99.7C347.103 100.833 344.836 101.4 342.303 101.4ZM326.403 101V63.9H334.203V79.55L333.703 87.5L333.853 95.5V101H326.403ZM340.953 95C342.253 95 343.403 94.7 344.403 94.1C345.436 93.5 346.253 92.65 346.853 91.55C347.486 90.4167 347.803 89.0833 347.803 87.55C347.803 85.9833 347.486 84.65 346.853 83.55C346.253 82.45 345.436 81.6 344.403 81C343.403 80.4 342.253 80.1 340.953 80.1C339.653 80.1 338.486 80.4 337.453 81C336.419 81.6 335.603 82.45 335.003 83.55C334.403 84.65 334.103 85.9833 334.103 87.55C334.103 89.0833 334.403 90.4167 335.003 91.55C335.603 92.65 336.419 93.5 337.453 94.1C338.486 94.7 339.653 95 340.953 95ZM379.485 101V95.75L378.985 94.6V85.2C378.985 83.5333 378.468 82.2333 377.435 81.3C376.435 80.3667 374.885 79.9 372.785 79.9C371.351 79.9 369.935 80.1333 368.535 80.6C367.168 81.0333 366.001 81.6333 365.035 82.4L362.235 76.95C363.701 75.9167 365.468 75.1167 367.535 74.55C369.601 73.9833 371.701 73.7 373.835 73.7C377.935 73.7 381.118 74.6667 383.385 76.6C385.651 78.5333 386.785 81.55 386.785 85.65V101H379.485ZM371.285 101.4C369.185 101.4 367.385 101.05 365.885 100.35C364.385 99.6167 363.235 98.6333 362.435 97.4C361.635 96.1667 361.235 94.7833 361.235 93.25C361.235 91.65 361.618 90.25 362.385 89.05C363.185 87.85 364.435 86.9167 366.135 86.25C367.835 85.55 370.051 85.2 372.785 85.2H379.935V89.75H373.635C371.801 89.75 370.535 90.05 369.835 90.65C369.168 91.25 368.835 92 368.835 92.9C368.835 93.9 369.218 94.7 369.985 95.3C370.785 95.8667 371.868 96.15 373.235 96.15C374.535 96.15 375.701 95.85 376.735 95.25C377.768 94.6167 378.518 93.7 378.985 92.5L380.185 96.1C379.618 97.8333 378.585 99.15 377.085 100.05C375.585 100.95 373.651 101.4 371.285 101.4ZM412.694 73.7C414.827 73.7 416.727 74.1333 418.394 75C420.094 75.8333 421.427 77.1333 422.394 78.9C423.361 80.6333 423.844 82.8667 423.844 85.6V101H416.044V86.8C416.044 84.6333 415.561 83.0333 414.594 82C413.661 80.9667 412.327 80.45 410.594 80.45C409.361 80.45 408.244 80.7167 407.244 81.25C406.277 81.75 405.511 82.5333 404.944 83.6C404.411 84.6667 404.144 86.0333 404.144 87.7V101H396.344V74.1H403.794V81.55L402.394 79.3C403.361 77.5 404.744 76.1167 406.544 75.15C408.344 74.1833 410.394 73.7 412.694 73.7ZM433.414 101V74.1H441.214V101H433.414ZM437.314 70.35C435.881 70.35 434.714 69.9333 433.814 69.1C432.914 68.2667 432.464 67.2333 432.464 66C432.464 64.7667 432.914 63.7333 433.814 62.9C434.714 62.0667 435.881 61.65 437.314 61.65C438.748 61.65 439.914 62.05 440.814 62.85C441.714 63.6167 442.164 64.6167 442.164 65.85C442.164 67.15 441.714 68.2333 440.814 69.1C439.948 69.9333 438.781 70.35 437.314 70.35ZM467.454 101V95.75L466.954 94.6V85.2C466.954 83.5333 466.437 82.2333 465.404 81.3C464.404 80.3667 462.854 79.9 460.754 79.9C459.32 79.9 457.904 80.1333 456.504 80.6C455.137 81.0333 453.97 81.6333 453.004 82.4L450.204 76.95C451.67 75.9167 453.437 75.1167 455.504 74.55C457.57 73.9833 459.67 73.7 461.804 73.7C465.904 73.7 469.087 74.6667 471.354 76.6C473.62 78.5333 474.754 81.55 474.754 85.65V101H467.454ZM459.254 101.4C457.154 101.4 455.354 101.05 453.854 100.35C452.354 99.6167 451.204 98.6333 450.404 97.4C449.604 96.1667 449.204 94.7833 449.204 93.25C449.204 91.65 449.587 90.25 450.354 89.05C451.154 87.85 452.404 86.9167 454.104 86.25C455.804 85.55 458.02 85.2 460.754 85.2H467.904V89.75H461.604C459.77 89.75 458.504 90.05 457.804 90.65C457.137 91.25 456.804 92 456.804 92.9C456.804 93.9 457.187 94.7 457.954 95.3C458.754 95.8667 459.837 96.15 461.204 96.15C462.504 96.15 463.67 95.85 464.704 95.25C465.737 94.6167 466.487 93.7 466.954 92.5L468.154 96.1C467.587 97.8333 466.554 99.15 465.054 100.05C463.554 100.95 461.62 101.4 459.254 101.4Z" fill="black"/>
</svg>
